<svg height="511pt" viewBox="0 -17 511.99485 511" width="511pt" xmlns="http://www.w3.org/2000/svg"><path d="m177.128906 356.625c26.65625 25.839844 69.015625 25.839844 95.675782 0l123.328124-119.53125v-219.882812c0-9.230469-7.480468-16.714844-16.710937-16.714844h-308.914063c-9.230468 0-16.710937 7.484375-16.710937 16.714844v219.882812zm0 0" fill="#e4eaf8"/><g fill="#c7d2e5"><path d="m265.808594 101.289062c4.265625 0 7.726562-3.460937 7.726562-7.730468 0-4.265625-3.457031-7.726563-7.726562-7.726563h-83.617188c-4.265625 0-7.726562 3.460938-7.726562 7.726563 0 4.269531 3.457031 7.730468 7.726562 7.730468zm0 0"/><path d="m307.617188 121.15625h-167.234376c-4.269531 0-7.726562 3.457031-7.726562 7.726562 0 4.265626 3.457031 7.726563 7.726562 7.726563h167.234376c4.269531 0 7.730468-3.460937 7.730468-7.726563 0-4.269531-3.460937-7.726562-7.730468-7.726562zm0 0"/><path d="m307.617188 156.472656h-167.234376c-4.269531 0-7.726562 3.460938-7.726562 7.730469 0 4.265625 3.457031 7.726563 7.726562 7.726563h167.234376c4.269531 0 7.730468-3.460938 7.730468-7.726563 0-4.269531-3.460937-7.730469-7.730468-7.730469zm0 0"/><path d="m307.617188 191.796875h-167.234376c-4.269531 0-7.726562 3.457031-7.726562 7.726563 0 4.265624 3.457031 7.726562 7.726562 7.726562h167.234376c4.269531 0 7.730468-3.460938 7.730468-7.726562 0-4.269532-3.460937-7.726563-7.730468-7.726563zm0 0"/><path d="m307.617188 227.117188h-167.234376c-4.269531 0-7.726562 3.457031-7.726562 7.726562s3.457031 7.726562 7.726562 7.726562h167.234376c4.269531 0 7.730468-3.457031 7.730468-7.726562s-3.460937-7.726562-7.730468-7.726562zm0 0"/><path d="m315.347656 270.164062c0-4.269531-3.460937-7.726562-7.730468-7.726562h-167.234376c-4.269531 0-7.726562 3.457031-7.726562 7.726562 0 4.269532 3.457031 7.726563 7.726562 7.726563h167.234376c4.269531 0 7.730468-3.460937 7.730468-7.726563zm0 0"/><path d="m205.871094 356.625-110.734375-107.320312c-8.050781-7.804688-12.597657-18.539063-12.597657-29.753907v-202.339843c0-9.230469 7.484376-16.714844 16.714844-16.714844h-28.746094c-9.230468 0-16.710937 7.484375-16.710937 16.714844v219.882812l123.332031 119.53125c17.050782 16.53125 40.527344 22.464844 62.210938 17.847656-12.214844-2.597656-23.863282-8.535156-33.46875-17.847656zm0 0"/></g><path d="m433.976562 167.082031h-37.839843v68.09375l-123.332031 119.535157c-26.660157 25.835937-69.019532 25.835937-95.675782 0l-123.332031-119.53125v-68.09375h-37.84375c-8.773437-.003907-15.953125 7.175781-15.953125 15.953124v277.667969c0 8.777344 7.179688 15.957031 15.953125 15.957031h418.023437c8.777344 0 15.957032-7.179687 15.957032-15.957031 0-2.886719 0-270.941406 0-277.667969 0-8.777343-7.179688-15.957031-15.957032-15.957031zm0 0" fill="#feca57"/><path d="m396.136719 235.179688 53.796875-52.140626c0-8.777343-7.179688-15.953124-15.957032-15.953124h-37.839843zm0 0" fill="#f4b537"/><path d="m53.796875 167.082031h-37.84375c-8.773437 0-15.953125 7.179688-15.953125 15.957031l53.796875 52.140626zm0 0" fill="#f4b537"/><path d="m484.828125 169.257812c-36.222656-36.222656-94.949219-36.222656-131.171875 0-36.222656 36.222657-36.222656 94.949219 0 131.171876 36.222656 36.222656 94.949219 36.222656 131.171875 0 36.222656-36.222657 36.222656-94.949219 0-131.171876zm0 0" fill="#54a0ff"/><path d="m384.34375 300.429688c-36.222656-36.222657-36.222656-94.949219 0-131.171876 14.195312-14.195312 31.847656-22.800781 50.246094-25.871093-28.554688-4.765625-58.902344 3.839843-80.929688 25.871093-36.222656 36.21875-36.222656 94.949219 0 131.171876 22.027344 22.027343 52.375 30.632812 80.929688 25.867187-18.398438-3.070313-36.050782-11.671875-50.246094-25.867187zm0 0" fill="#338def"/><path d="m396.929688 214.519531 21.320312 21.324219 66.585938-66.585938c-7.464844-7.464843-15.886719-13.386718-24.867188-17.773437zm0 0" fill="#f4b537"/><path d="m439.570312 257.164062 63.039063-63.039062c-4.390625-8.984375-10.3125-17.40625-17.773437-24.867188l-66.585938 66.582032zm0 0" fill="#feca57"/><path d="m407.28125 271 32.289062-13.835938-42.640624-42.644531-13.839844 32.285157zm0 0" fill="#e4eaf8"/><path d="m418.316406 235.910156-21.386718-21.390625-13.839844 32.285157 21.390625 21.390624zm0 0" fill="#c7d2e5"/><path d="m383.789062 245.175781-11.019531 25.714844c-2.824219 6.589844 3.839844 13.253906 10.429688 10.429687l25.710937-11.019531zm0 0" fill="#576574"/><path d="m28.742188 460.707031c0-2.886719 0-270.945312 0-277.667969 0-8.777343 7.179687-15.957031 15.957031-15.957031h-28.746094c-8.773437 0-15.953125 7.179688-15.953125 15.957031v277.667969c0 8.777344 7.179688 15.957031 15.953125 15.957031h28.746094c-8.773438-.003906-15.957031-7.179687-15.957031-15.957031zm0 0" fill="#f4b537"/><path d="m12.75 167.410156c-.070312.011719-.136719.039063-.207031.050782-.445313.097656-.886719.207031-1.320313.34375-6.484375 2.027343-11.222656 8.105468-11.222656 15.234374l28.742188 27.859376c0-16.15625 0-26.597657 0-27.859376 0-8.777343 7.179687-15.953124 15.957031-15.953124h-28.746094c-1.097656-.003907-2.167969.109374-3.203125.324218zm0 0" fill="#eaa01c"/><path d="m272.804688 354.710938c-26.660157 25.835937-69.019532 25.835937-95.675782 0l-33.882812-32.839844-143.246094 138.835937c0 8.777344 7.179688 15.953125 15.953125 15.953125h418.023437c8.777344 0 15.957032-7.175781 15.957032-15.953125l-143.25-138.835937zm0 0" fill="#f4b537"/><path d="m15.953125 476.660156h4.625l141.1875-136.835937-18.519531-17.953125-143.246094 138.835937c0 8.777344 7.179688 15.953125 15.953125 15.953125zm0 0" fill="#eaa01c"/><path d="m402.378906 273.101562 2.800782-6.535156-21.390626-21.390625-11.019531 25.714844c-2.824219 6.589844 3.839844 13.253906 10.429688 10.429687zm0 0" fill="#3e4b5a"/></svg>